<svg xmlns="http://www.w3.org/2000/svg" version="1.1" xmlns:xlink="http://www.w3.org/1999/xlink" xmlns:svgjs="http://svgjs.dev/svgjs" width="2000" height="252" viewBox="0 0 2000 252"><g transform="matrix(1,0,0,1,-1.2121212121212466,0.08198756120708595)"><svg viewBox="0 0 396 50" data-background-color="#000000" preserveAspectRatio="xMidYMid meet" height="252" width="2000" xmlns="http://www.w3.org/2000/svg" xmlns:xlink="http://www.w3.org/1999/xlink"><g id="tight-bounds" transform="matrix(1,0,0,1,0.2400000000000091,-0.016267373255374196)"><svg viewBox="0 0 395.52 50.032534746510755" height="50.032534746510755" width="395.52"><g><svg viewBox="0 0 486.03841826301675 61.48294409861325" height="50.032534746510755" width="395.52"><g><rect width="4.012008212164438" height="53.38605855161787" x="76.00377075199256" y="4.04844277349769" fill="#ffffff" opacity="1" stroke-width="0" stroke="transparent" fill-opacity="1" class="rect-qz-0" data-fill-palette-color="primary" rx="1%" id="qz-0" data-palette-color="#ffffff"></rect></g><g transform="matrix(1,0,0,1,90.51841826301678,8.497280986132512)"><svg viewBox="0 0 395.52 44.48838212634823" height="44.48838212634823" width="395.52"><g id="textblocktransform"><svg viewBox="0 0 395.52 44.48838212634823" height="44.48838212634823" width="395.52" id="textblock"><g><svg viewBox="0 0 395.52 44.48838212634823" height="44.48838212634823" width="395.52"><g transform="matrix(1,0,0,1,0,0)"><svg width="395.52" viewBox="3.9 -37.5 421.81 47.45" height="44.48838212634823" data-palette-color="#ffffff"><path d="M9.8-35L9.8-14.35Q9.8-9.8 12.3-7.2 14.8-4.6 19.05-4.6L19.05-4.6Q23.25-4.6 25.7-7.18 28.15-9.75 28.15-14.35L28.15-14.35 28.15-35 34.05-35 34.05-14.35Q34.05-9.8 32.25-6.48 30.45-3.15 27.08-1.38 23.7 0.4 19.05 0.4L19.05 0.4Q14.35 0.4 10.95-1.38 7.55-3.15 5.73-6.48 3.9-9.8 3.9-14.35L3.9-14.35 3.9-35 9.8-35ZM61.9 0L61.9-15Q61.9-18.1 60.2-19.88 58.5-21.65 55.5-21.65L55.5-21.65Q51.95-21.6 49.92-19.15 47.9-16.7 47.9-13.05L47.9-13.05 46.3-13.05Q46.3-18 47.7-21 49.1-24 51.67-25.38 54.25-26.75 57.75-26.75L57.75-26.75Q60.85-26.75 63.07-25.5 65.3-24.25 66.47-21.98 67.65-19.7 67.65-16.5L67.65-16.5 67.65 0 61.9 0ZM42.2 0L42.2-26.55 47.95-26.55 47.95 0 42.2 0ZM75.34 0L75.34-26.55 81.05-26.55 81.05 0 75.34 0ZM78.19-37.5L78.19-37.5Q79.64-37.5 80.59-36.55 81.55-35.6 81.55-34.15L81.55-34.15Q81.55-32.75 80.59-31.78 79.64-30.8 78.19-30.8L78.19-30.8Q76.8-30.8 75.82-31.78 74.84-32.75 74.84-34.15L74.84-34.15Q74.84-35.6 75.82-36.55 76.8-37.5 78.19-37.5ZM95.64 0L85.34-26.55 91.34-26.55 98.74-5.3 106.04-26.55 111.79-26.55 101.59 0 95.64 0ZM117.94-15.2L134.19-15.2Q134.09-17.45 133.17-19.03 132.24-20.6 130.59-21.48 128.94-22.35 126.79-22.35L126.79-22.35Q124.39-22.35 122.62-21.25 120.84-20.15 119.84-18.18 118.84-16.2 118.84-13.55L118.84-13.55Q118.84-10.7 119.92-8.6 120.99-6.5 122.92-5.35 124.84-4.2 127.34-4.2L127.34-4.2Q131.79-4.2 134.84-7.35L134.84-7.35 137.89-4.3Q135.94-2.15 133.14-0.98 130.34 0.2 126.89 0.2L126.89 0.2Q122.79 0.2 119.74-1.5 116.69-3.2 114.99-6.23 113.29-9.25 113.29-13.25L113.29-13.25Q113.29-17.25 114.99-20.28 116.69-23.3 119.74-25 122.79-26.7 126.74-26.75L126.74-26.75Q131.44-26.75 134.29-24.83 137.14-22.9 138.34-19.4 139.54-15.9 139.19-11.1L139.19-11.1 117.94-11.1 117.94-15.2ZM160.14-26.75L160.14-21.55Q157.29-21.7 155.21-20.58 153.14-19.45 152.01-17.45 150.89-15.45 150.89-12.85L150.89-12.85 149.29-13.05Q149.29-17.5 150.59-20.55 151.89-23.6 154.34-25.18 156.79-26.75 160.14-26.75L160.14-26.75ZM145.19 0L145.19-26.55 150.94-26.55 150.94 0 145.19 0ZM182.13-24.15L180.03-20.1Q178.28-21.15 176.21-21.78 174.13-22.4 172.38-22.4L172.38-22.4Q170.69-22.4 169.58-21.75 168.48-21.1 168.48-19.6L168.48-19.6Q168.48-18.35 169.51-17.63 170.53-16.9 172.13-16.4 173.73-15.9 175.53-15.35 177.33-14.8 178.96-13.93 180.58-13.05 181.58-11.55 182.58-10.05 182.58-7.6L182.58-7.6Q182.58-4.9 181.16-3.18 179.73-1.45 177.41-0.63 175.08 0.2 172.38 0.2L172.38 0.2Q169.48 0.2 166.58-0.75 163.69-1.7 161.69-3.5L161.69-3.5 163.73-7.4Q165.48-5.85 167.98-4.98 170.48-4.1 172.63-4.1L172.63-4.1Q173.88-4.1 174.86-4.42 175.83-4.75 176.41-5.4 176.98-6.05 176.98-7.1L176.98-7.1Q176.98-8.5 175.98-9.3 174.98-10.1 173.38-10.63 171.78-11.15 169.98-11.68 168.19-12.2 166.61-13.05 165.03-13.9 164.03-15.35 163.03-16.8 163.03-19.2L163.03-19.2Q163.03-21.9 164.44-23.58 165.83-25.25 168.06-26.03 170.28-26.8 172.83-26.8L172.83-26.8Q175.33-26.8 177.83-26.1 180.33-25.4 182.13-24.15L182.13-24.15ZM188.38 0L188.38-26.55 194.08-26.55 194.08 0 188.38 0ZM191.23-37.5L191.23-37.5Q192.68-37.5 193.63-36.55 194.58-35.6 194.58-34.15L194.58-34.15Q194.58-32.75 193.63-31.78 192.68-30.8 191.23-30.8L191.23-30.8Q189.83-30.8 188.86-31.78 187.88-32.75 187.88-34.15L187.88-34.15Q187.88-35.6 188.86-36.55 189.83-37.5 191.23-37.5ZM209.33-32.85L209.33-8.4Q209.33-6.25 210.08-5.48 210.83-4.7 212.18-4.7L212.18-4.7Q213.08-4.7 214.05-5 215.03-5.3 216.18-5.9L216.18-5.9 217.63-1.75Q216.08-0.8 214.43-0.28 212.78 0.25 211.08 0.25L211.08 0.25Q209.08 0.25 207.38-0.53 205.68-1.3 204.65-3 203.63-4.7 203.63-7.4L203.63-7.4 203.63-32.85 209.33-32.85ZM199.88-21.5L199.88-25.6 217.18-25.6 217.18-21.5 199.88-21.5ZM245.48-26.55L233.38 3.75Q232.13 6.8 229.93 8.38 227.73 9.95 224.73 9.95L224.73 9.95Q222.93 9.95 221.45 9.4 219.98 8.85 218.58 7.75L218.58 7.75 221.03 3.5Q222.83 4.8 224.48 4.8L224.48 4.8Q225.78 4.8 226.83 4.05 227.88 3.3 228.53 1.75L228.53 1.75 229.43-0.35 218.43-26.55 224.38-26.55 232.33-6.05 239.73-26.55 245.48-26.55ZM292.62-30.4L289.27-26.35Q287.27-28.25 284.6-29.33 281.92-30.4 279.17-30.4L279.17-30.4Q276.47-30.4 274.17-29.4 271.87-28.4 270.12-26.65 268.37-24.9 267.4-22.58 266.42-20.25 266.42-17.55L266.42-17.55Q266.42-14.85 267.4-12.5 268.37-10.15 270.12-8.38 271.87-6.6 274.2-5.6 276.52-4.6 279.22-4.6L279.22-4.6Q281.67-4.6 284.3-5.6 286.92-6.6 289.02-8.3L289.02-8.3 292.42-4.2Q290.67-2.85 288.4-1.8 286.12-0.75 283.67-0.18 281.22 0.4 278.82 0.4L278.82 0.4Q274.92 0.4 271.6-0.98 268.27-2.35 265.75-4.8 263.22-7.25 261.82-10.53 260.42-13.8 260.42-17.55L260.42-17.55Q260.42-21.3 261.85-24.53 263.27-27.75 265.82-30.2 268.37-32.65 271.8-34 275.22-35.35 279.17-35.35L279.17-35.35Q281.67-35.35 284.1-34.75 286.52-34.15 288.72-33.05 290.92-31.95 292.62-30.4L292.62-30.4ZM287.27-4.2L287.27-17.1 292.42-17.1 292.42-4.2 287.27-4.2ZM305.32-26.55L305.32-11.55Q305.32-8.45 306.97-6.68 308.62-4.9 311.52-4.9L311.52-4.9Q314.97-5 316.9-7.45 318.82-9.9 318.82-13.5L318.82-13.5 320.37-13.5Q320.37-8.6 319.02-5.6 317.67-2.6 315.19-1.23 312.72 0.15 309.32 0.2L309.32 0.2Q306.27 0.2 304.1-1.05 301.92-2.3 300.75-4.6 299.57-6.9 299.57-10.05L299.57-10.05 299.57-26.55 305.32-26.55ZM318.82 0L318.82-26.55 324.57-26.55 324.57 0 318.82 0ZM333.07 0L333.07-26.55 338.77-26.55 338.77 0 333.07 0ZM335.92-37.5L335.92-37.5Q337.37-37.5 338.32-36.55 339.27-35.6 339.27-34.15L339.27-34.15Q339.27-32.75 338.32-31.78 337.37-30.8 335.92-30.8L335.92-30.8Q334.52-30.8 333.54-31.78 332.57-32.75 332.57-34.15L332.57-34.15Q332.57-35.6 333.54-36.55 334.52-37.5 335.92-37.5ZM357.41-26.8L357.41-26.8Q361.12-26.8 363.69-25.18 366.26-23.55 367.64-20.53 369.01-17.5 368.96-13.3L368.96-13.3Q369.01-9.1 367.66-6.05 366.31-3 363.74-1.38 361.16 0.25 357.51 0.25L357.51 0.25Q353.71 0.25 350.84-1.48 347.96-3.2 346.37-6.28 344.76-9.35 344.76-13.35L344.76-13.35Q344.76-17.35 346.37-20.38 347.96-23.4 350.81-25.1 353.66-26.8 357.41-26.8ZM358.71-22.15L358.71-22.15Q356.31-22.15 354.46-21 352.62-19.85 351.59-17.82 350.56-15.8 350.51-13.2L350.51-13.2Q350.56-10.6 351.59-8.6 352.62-6.6 354.46-5.45 356.31-4.3 358.71-4.3L358.71-4.3Q361.12-4.3 362.96-5.45 364.81-6.6 365.84-8.6 366.87-10.6 366.87-13.2L366.87-13.2Q366.87-15.85 365.84-17.85 364.81-19.85 362.96-21 361.12-22.15 358.71-22.15ZM366.87 0L366.87-37.1 372.62-37.1 372.62 0 366.87 0ZM383.51-15.2L399.76-15.2Q399.66-17.45 398.74-19.03 397.81-20.6 396.16-21.48 394.51-22.35 392.36-22.35L392.36-22.35Q389.96-22.35 388.19-21.25 386.41-20.15 385.41-18.18 384.41-16.2 384.41-13.55L384.41-13.55Q384.41-10.7 385.49-8.6 386.56-6.5 388.49-5.35 390.41-4.2 392.91-4.2L392.91-4.2Q397.36-4.2 400.41-7.35L400.41-7.35 403.46-4.3Q401.51-2.15 398.71-0.98 395.91 0.2 392.46 0.2L392.46 0.2Q388.36 0.2 385.31-1.5 382.26-3.2 380.56-6.23 378.86-9.25 378.86-13.25L378.86-13.25Q378.86-17.25 380.56-20.28 382.26-23.3 385.31-25 388.36-26.7 392.31-26.75L392.31-26.75Q397.01-26.75 399.86-24.83 402.71-22.9 403.91-19.4 405.11-15.9 404.76-11.1L404.76-11.1 383.51-11.1 383.51-15.2ZM425.71-26.75L425.71-21.55Q422.86-21.7 420.78-20.58 418.71-19.45 417.58-17.45 416.46-15.45 416.46-12.85L416.46-12.85 414.86-13.05Q414.86-17.5 416.16-20.55 417.46-23.6 419.91-25.18 422.36-26.75 425.71-26.75L425.71-26.75ZM410.76 0L410.76-26.55 416.51-26.55 416.51 0 410.76 0Z" opacity="1" transform="matrix(1,0,0,1,0,0)" fill="#ffffff" class="wordmark-text-0" data-fill-palette-color="primary" id="text-0"></path></svg></g></svg></g></svg></g></svg></g><g><svg viewBox="0 0 65.50113145313277 61.48294409861325" height="61.48294409861325" width="65.50113145313277"><g><svg xmlns="http://www.w3.org/2000/svg" xmlns:xlink="http://www.w3.org/1999/xlink" version="1.1" x="0" y="0" viewBox="6.718 11.054 86.82 81.494" enable-background="new 0 0 100 100" xml:space="preserve" height="61.48294409861325" width="65.50113145313277" class="icon-icon-0" data-fill-palette-color="accent" id="icon-0"><path d="M46.328 15.299l27.056 16.907H19.272L46.328 15.299M46.328 11.054L6.718 35.805h79.221L46.328 11.054 46.328 11.054z" fill="#ffffff" data-fill-palette-color="accent"></path><g fill="#ffffff" data-fill-palette-color="accent"><rect x="16.159" y="44.127" width="7.2" height="36.541" fill="#ffffff" data-fill-palette-color="accent"></rect></g><g fill="#ffffff" data-fill-palette-color="accent"><rect x="29.444" y="44.127" width="7.2" height="36.541" fill="#ffffff" data-fill-palette-color="accent"></rect></g><g fill="#ffffff" data-fill-palette-color="accent"><rect x="42.728" y="44.127" width="7.2" height="36.541" fill="#ffffff" data-fill-palette-color="accent"></rect></g><g fill="#ffffff" data-fill-palette-color="accent"><rect x="12.646" y="38.172" width="67.364" height="3.6" fill="#ffffff" data-fill-palette-color="accent"></rect></g><circle cx="46.328" cy="23.43" r="4.3" fill="#ffffff" data-fill-palette-color="accent"></circle><path d="M93.537 92.548H56.013V55.022h37.525V92.548zM59.613 88.948h30.325V58.622H59.613V88.948z" fill="#ffffff" data-fill-palette-color="accent"></path><rect x="69.296" y="44.126" width="7.2" height="8.57" fill="#ffffff" data-fill-palette-color="accent"></rect><rect x="56.013" y="44.126" width="7.2" height="8.57" fill="#ffffff" data-fill-palette-color="accent"></rect><rect x="12.646" y="83.023" width="41.041" height="3.6" fill="#ffffff" data-fill-palette-color="accent"></rect><rect x="8.183" y="88.948" width="45.505" height="3.6" fill="#ffffff" data-fill-palette-color="accent"></rect><path d="M74.45 76.989l1.927-4.754-4.746 1.928-9.592 9.587 2.818 2.826L74.45 76.989zM74.216 73.651l0.747 0.747-0.967 2.387-0.002 0.002-2.164-2.164 0.005-0.005L74.216 73.651z" fill="#ffffff" data-fill-palette-color="accent"></path><g fill="#ffffff" data-fill-palette-color="accent"><g fill="#ffffff" data-fill-palette-color="accent"><rect x="64.704" y="61.839" width="20.87" height="1.117" fill="#ffffff" data-fill-palette-color="accent"></rect></g><g fill="#ffffff" data-fill-palette-color="accent"><rect x="64.704" y="64.747" width="20.87" height="1.117" fill="#ffffff" data-fill-palette-color="accent"></rect></g><g fill="#ffffff" data-fill-palette-color="accent"><rect x="64.704" y="67.656" width="20.87" height="1.117" fill="#ffffff" data-fill-palette-color="accent"></rect></g><g fill="#ffffff" data-fill-palette-color="accent"><rect x="64.704" y="70.565" width="8.479" height="1.117" fill="#ffffff" data-fill-palette-color="accent"></rect></g></g></svg></g></svg></g></svg></g><defs></defs></svg><rect width="395.52" height="50.032534746510755" fill="none" stroke="none" visibility="hidden"></rect></g></svg></g></svg>