<svg xmlns="http://www.w3.org/2000/svg" version="1.1" xmlns:xlink="http://www.w3.org/1999/xlink" xmlns:svgjs="http://svgjs.dev/svgjs" width="2000" height="247" viewBox="0 0 2000 247"><g transform="matrix(1,0,0,1,-1.2121212121212466,-0.8347727003653773)"><svg viewBox="0 0 396 49" data-background-color="#333366" preserveAspectRatio="xMidYMid meet" height="247" width="2000" xmlns="http://www.w3.org/2000/svg" xmlns:xlink="http://www.w3.org/1999/xlink"><g id="tight-bounds" transform="matrix(1,0,0,1,0.2400000000000091,0.16560268144900192)"><svg viewBox="0 0 395.52 48.66879463710197" height="48.66879463710197" width="395.52"><g><svg viewBox="0 0 395.52 48.66879463710197" height="48.66879463710197" width="395.52"><g><svg viewBox="0 0 395.52 48.66879463710197" height="48.66879463710197" width="395.52"><g id="textblocktransform"><svg viewBox="0 0 395.52 48.66879463710197" height="48.66879463710197" width="395.52" id="textblock"><g><svg viewBox="0 0 395.52 48.66879463710197" height="48.66879463710197" width="395.52"><g transform="matrix(1,0,0,1,0,0)"><svg width="395.52" viewBox="3.86 -36.23 378.71999999999997 46.61" height="48.66879463710197" data-palette-color="#ffff33"><path d="M17.85 0.49L17.85 0.49Q13.62 0.49 10.47-1.07 7.32-2.64 5.59-5.54 3.86-8.45 3.86-12.5L3.86-12.5 3.86-34.4 8.52-34.4 8.52-12.89Q8.52-8.18 10.91-5.74 13.31-3.3 17.82-3.3L17.82-3.3Q22.46-3.3 25.04-5.82 27.61-8.35 27.61-13.21L27.61-13.21 27.61-34.4 32.25-34.4 32.25-12.94Q32.25-8.76 30.48-5.76 28.71-2.76 25.48-1.14 22.24 0.49 17.85 0.49ZM43.97-15.31L43.97-15.31 43.97 0 39.57 0 39.57-20.78Q39.57-23.1 39.54-24.5 39.5-25.9 39.43-26.42L39.43-26.42 43.58-26.42Q43.63-25.95 43.66-25.24 43.7-24.54 43.72-23.68 43.75-22.83 43.77-21.9L43.77-21.9 43.85-21.9Q45.36-24.63 47.35-25.77 49.34-26.9 52.29-26.9L52.29-26.9Q56.64-26.9 58.65-24.68 60.67-22.46 60.67-17.6L60.67-17.6 60.67 0 56.25 0 56.25-16.75Q56.25-20.53 55.03-22.02 53.81-23.51 50.8-23.51L50.8-23.51Q47.63-23.51 45.8-21.34 43.97-19.17 43.97-15.31ZM67.26-36.23L71.65-36.23 71.65-32.03 67.26-32.03 67.26-36.23ZM67.26-26.42L71.65-26.42 71.65 0 67.26 0 67.26-26.42ZM95.18-26.42L99.85-26.42 89.98 0 84.78 0 75.19-26.42 79.88-26.42 85.69-9.23Q85.86-8.74 86.27-7.29 86.69-5.83 87.37-3.44L87.37-3.44Q87.69-4.39 87.99-5.43 88.3-6.47 88.6-7.45 88.91-8.42 89.18-9.18L89.18-9.18 95.18-26.42ZM125.6-12.28L106.75-12.28Q106.75-7.74 108.63-5.27 110.51-2.81 114.13-2.81L114.13-2.81Q116.98-2.81 118.7-3.96 120.42-5.1 121.03-6.86L121.03-6.86 124.89-5.76Q122.52 0.49 114.13 0.49L114.13 0.49Q108.27 0.49 105.2-3 102.14-6.49 102.14-13.38L102.14-13.38Q102.14-19.92 105.2-23.41 108.27-26.9 113.95-26.9L113.95-26.9Q119.79-26.9 122.7-23.39 125.6-19.87 125.6-12.87L125.6-12.87 125.6-12.28ZM106.8-15.65L121.06-15.65Q120.69-19.82 118.94-21.74 117.18-23.66 113.88-23.66L113.88-23.66Q110.68-23.66 108.82-21.52 106.95-19.38 106.8-15.65L106.8-15.65ZM135.68-13.77L135.68-13.77 135.68 0 131.29 0 131.29-20.26Q131.29-21.66 131.25-23.19 131.21-24.73 131.14-26.42L131.14-26.42 135.29-26.42Q135.34-25.29 135.38-24.39 135.41-23.49 135.44-22.81 135.46-22.14 135.47-21.69 135.49-21.24 135.49-21.02L135.49-21.02 135.58-21.02Q136.32-23.41 137.19-24.73L137.19-24.73Q138.05-25.95 139.15-26.43 140.25-26.9 141.86-26.9L141.86-26.9Q142.76-26.9 143.64-26.66L143.64-26.66 143.64-22.63Q142.81-22.88 141.3-22.88L141.3-22.88Q138.56-22.88 137.12-20.52 135.68-18.16 135.68-13.77ZM167.66-7.3L167.66-7.3Q167.66-3.56 164.84-1.54 162.02 0.49 156.94 0.49L156.94 0.49Q152.01 0.49 149.34-1.14 146.66-2.76 145.86-6.2L145.86-6.2 149.74-6.96Q150.3-4.83 152.06-3.85 153.82-2.86 156.94-2.86L156.94-2.86Q160.29-2.86 161.84-3.88 163.39-4.91 163.39-6.96L163.39-6.96Q163.39-8.52 162.31-9.5 161.24-10.47 158.85-11.11L158.85-11.11Q156.02-11.87 154.34-12.35 152.67-12.84 151.77-13.2 150.86-13.55 150.33-13.87L150.33-13.87Q148.72-14.79 147.81-16.14 146.91-17.48 146.91-19.43L146.91-19.43Q146.91-23.05 149.48-24.94 152.06-26.83 156.99-26.83L156.99-26.83Q161.36-26.83 163.94-25.29 166.51-23.75 167.2-20.36L167.2-20.36 163.24-19.87Q162.88-21.63 161.28-22.57 159.68-23.51 156.99-23.51L156.99-23.51Q154.01-23.51 152.6-22.61 151.18-21.7 151.18-19.87L151.18-19.87Q151.18-18.53 151.99-17.66 152.79-16.8 155.06-16.24L155.06-16.24Q158.11-15.5 160.87-14.64 163.63-13.77 164.83-12.92L164.83-12.92Q166.22-11.91 166.94-10.56 167.66-9.2 167.66-7.3ZM172.81-36.23L177.2-36.23 177.2-32.03 172.81-32.03 172.81-36.23ZM172.81-26.42L177.2-26.42 177.2 0 172.81 0 172.81-26.42ZM194.1-3.44L194.1-0.2Q191.95 0.39 189.65 0.39L189.65 0.39Q187.02 0.39 185.7-1.11 184.38-2.61 184.38-5.59L184.38-5.59 184.38-23.22 181.33-23.22 181.33-26.42 184.55-26.42 185.84-32.32 188.77-32.32 188.77-26.42 193.66-26.42 193.66-23.22 188.77-23.22 188.77-6.54Q188.77-4.64 189.4-3.87 190.02-3.1 191.56-3.1L191.56-3.1Q192.39-3.1 194.1-3.44L194.1-3.44ZM199.12 10.38L199.12 10.38Q197.37 10.38 196.1 10.11L196.1 10.11 196.1 6.81Q197.02 6.96 198.15 6.96L198.15 6.96Q200.2 6.96 201.94 5.43 203.69 3.91 205.06-0.12L205.06-0.12 194.58-26.42 199.27-26.42 204.84-11.82Q205.45-10.25 206.14-8.28 206.84-6.3 207.23-4.79L207.23-4.79Q207.84-6.52 208.46-8.23 209.08-9.94 209.67-11.65L209.67-11.65 214.72-26.42 219.36-26.42 209.21 0Q208.38 2.1 207.62 3.67 206.86 5.25 206.15 6.27L206.15 6.27Q204.74 8.35 203.02 9.36 201.3 10.38 199.12 10.38ZM253.2-3.3L253.2-3.3Q256.56-3.3 259.48-4.32 262.4-5.35 264.21-7.1L264.21-7.1 264.21-13.31 253.93-13.31 253.93-17.21 268.5-17.21 268.5-5.35Q265.77-2.56 261.8-1.04 257.83 0.49 253.2 0.49L253.2 0.49Q247.82 0.49 243.94-1.68 240.06-3.86 237.96-7.87 235.86-11.89 235.86-17.36L235.86-17.36Q235.86-25.73 240.35-30.32 244.85-34.91 252.98-34.91L252.98-34.91Q258.69-34.91 262.25-32.98 265.82-31.05 267.75-26.81L267.75-26.81 263.3-25.49Q261.84-28.42 259.26-29.76 256.69-31.1 252.85-31.1L252.85-31.1Q246.9-31.1 243.75-27.5 240.6-23.9 240.6-17.36L240.6-17.36Q240.6-10.84 243.94-7.07 247.29-3.3 253.2-3.3ZM292.38-4.52L292.3-4.52Q290.79-1.78 288.8-0.65 286.81 0.49 283.86 0.49L283.86 0.49Q279.51 0.49 277.5-1.67 275.48-3.83 275.48-8.81L275.48-8.81 275.48-26.42 279.9-26.42 279.9-9.67Q279.9-5.71 281.13-4.31 282.37-2.91 285.35-2.91L285.35-2.91Q288.52-2.91 290.35-5.08 292.18-7.25 292.18-11.11L292.18-11.11 292.18-26.42 296.58-26.42 296.58-5.64Q296.58-3.34 296.61-1.93 296.65-0.51 296.72 0L296.72 0 292.57 0Q292.55-0.12 292.49-1.15 292.43-2.17 292.38-4.52L292.38-4.52ZM303.39-36.23L307.78-36.23 307.78-32.03 303.39-32.03 303.39-36.23ZM303.39-26.42L307.78-26.42 307.78 0 303.39 0 303.39-26.42ZM335.73 0L331.53 0Q331.48-0.27 331.42-1.01 331.36-1.76 331.32-2.66 331.29-3.56 331.29-4.25L331.29-4.25 331.19-4.25Q329.97-1.71 327.96-0.61 325.94 0.49 322.96 0.49L322.96 0.49Q317.96 0.49 315.6-2.88 313.25-6.25 313.25-13.09L313.25-13.09Q313.25-20 315.68-23.45 318.1-26.9 322.96-26.9L322.96-26.9Q325.97-26.9 327.97-25.81 329.97-24.71 331.19-22.31L331.19-22.31 331.24-22.31 331.19-25.27 331.19-36.23 335.59-36.23 335.59-5.44Q335.59-3.37 335.62-2.01 335.66-0.66 335.73 0L335.73 0ZM317.86-13.23L317.86-13.23Q317.86-7.69 319.33-5.3 320.79-2.91 324.09-2.91L324.09-2.91Q327.82-2.91 329.51-5.49 331.19-8.08 331.19-13.53L331.19-13.53Q331.19-18.77 329.51-21.22 327.82-23.66 324.13-23.66L324.13-23.66Q320.81-23.66 319.34-21.2 317.86-18.75 317.86-13.23ZM364.54-12.28L345.69-12.28Q345.69-7.74 347.57-5.27 349.45-2.81 353.06-2.81L353.06-2.81Q355.92-2.81 357.64-3.96 359.36-5.1 359.97-6.86L359.97-6.86 363.83-5.76Q361.46 0.49 353.06 0.49L353.06 0.49Q347.2 0.49 344.14-3 341.08-6.49 341.08-13.38L341.08-13.38Q341.08-19.92 344.14-23.41 347.2-26.9 352.89-26.9L352.89-26.9Q358.73-26.9 361.63-23.39 364.54-19.87 364.54-12.87L364.54-12.87 364.54-12.28ZM345.74-15.65L360-15.65Q359.63-19.82 357.87-21.74 356.11-23.66 352.82-23.66L352.82-23.66Q349.62-23.66 347.75-21.52 345.89-19.38 345.74-15.65L345.74-15.65ZM374.62-13.77L374.62-13.77 374.62 0 370.22 0 370.22-20.26Q370.22-21.66 370.19-23.19 370.15-24.73 370.08-26.42L370.08-26.42 374.23-26.42Q374.28-25.29 374.31-24.39 374.35-23.49 374.37-22.81 374.4-22.14 374.41-21.69 374.42-21.24 374.42-21.02L374.42-21.02 374.52-21.02Q375.25-23.41 376.13-24.73L376.13-24.73Q376.99-25.95 378.09-26.43 379.18-26.9 380.79-26.9L380.79-26.9Q381.7-26.9 382.58-26.66L382.58-26.66 382.58-22.63Q381.75-22.88 380.23-22.88L380.23-22.88Q377.5-22.88 376.06-20.52 374.62-18.16 374.62-13.77Z" opacity="1" transform="matrix(1,0,0,1,0,0)" fill="#ffffff" class="wordmark-text-0" data-fill-palette-color="primary" id="text-0"></path></svg></g></svg></g></svg></g></svg></g></svg></g><defs></defs></svg><rect width="395.52" height="48.66879463710197" fill="none" stroke="none" visibility="hidden"></rect></g></svg></g></svg>